<svg xmlns="http://www.w3.org/2000/svg" version="1.1" viewBox="-5.0 -10.0 110.0 135.0">
 <path d="m71.875 37.699c0-3.9492 6-3.9492 6 0v14.727c0 14.258-10.867 26.195-24.875 27.711v10.664h9.6523c3.9492 0 3.9492 6 0 6h-25.305c-3.9492 0-3.9492-6 0-6h9.6523v-10.66c-14.004-1.5156-24.875-13.453-24.875-27.711v-14.73c0-3.9492 6-3.9492 6 0v14.727c0 19.207 23.441 29.324 37.32 15.445 3.9648-3.9648 6.4297-9.4336 6.4297-15.445zm-21.875-34.5c-10.094 0-18.34 8.2461-18.34 18.34v30.887c0 5.0469 2.0625 9.6328 5.3867 12.953 11.598 11.602 31.297 3.2031 31.297-12.953l-0.003906-30.887c0-10.094-8.2461-18.34-18.34-18.34zm0 6c-6.7812 0-12.34 5.5586-12.34 12.34v30.887c0 10.824 13.219 16.547 21.055 8.7148 2.2383-2.2383 3.6289-5.3242 3.6289-8.7148l-0.003906-30.887c0-6.7773-5.5586-12.34-12.34-12.34z" fill-rule="evenodd"/>
<text x="0.0" y="117.5" font-size="5.0" font-weight="bold" font-family="Arbeit Regular, Helvetica, Arial-Unicode, Arial, Sans-serif" fill="#000000">Created by Icon Queen</text><text x="0.0" y="122.5" font-size="5.0" font-weight="bold" font-family="Arbeit Regular, Helvetica, Arial-Unicode, Arial, Sans-serif" fill="#000000">from Noun Project</text></svg>