<svg xmlns="http://www.w3.org/2000/svg" version="1.1" viewBox="-5.0 -10.0 110.0 135.0">
 <path d="m50 87.5c-2.3008 0-4.168-1.8633-4.168-4.168v-66.664c0-2.3008 1.8672-4.168 4.168-4.168s4.168 1.8672 4.168 4.168v66.668c0 2.3008-1.8672 4.1641-4.168 4.1641zm-12.5-16.668v-41.664c0-2.3008-1.8672-4.168-4.168-4.168s-4.168 1.8672-4.168 4.168v41.668c0 2.3047 1.8672 4.168 4.168 4.168 2.3008-0.003906 4.168-1.8672 4.168-4.1719zm-16.668-12.5v-16.664c0-2.3008-1.8672-4.168-4.168-4.168-2.3008 0-4.1641 1.8672-4.1641 4.168v16.668c0 2.3047 1.8672 4.168 4.168 4.168 2.3008-0.003906 4.1641-1.8672 4.1641-4.1719zm66.668 0v-16.664c0-2.3008-1.8633-4.168-4.168-4.168-2.3047 0-4.168 1.8672-4.168 4.168v16.668c0 2.3047 1.8633 4.168 4.168 4.168 2.3047-0.003906 4.168-1.8672 4.168-4.1719zm-16.668 12.5v-41.664c0-2.3008-1.8633-4.168-4.168-4.168-2.3047 0-4.168 1.8672-4.168 4.168v41.668c0 2.3047 1.8633 4.168 4.168 4.168 2.3047-0.003906 4.168-1.8672 4.168-4.1719z"/>
<text x="0.0" y="117.5" font-size="5.0" font-weight="bold" font-family="Arbeit Regular, Helvetica, Arial-Unicode, Arial, Sans-serif" fill="#000000">Created by Skena Grafis</text><text x="0.0" y="122.5" font-size="5.0" font-weight="bold" font-family="Arbeit Regular, Helvetica, Arial-Unicode, Arial, Sans-serif" fill="#000000">from Noun Project</text></svg>