<svg xmlns="http://www.w3.org/2000/svg" viewBox="0 0 64 80" x="0px" y="0px"><title>reset, update</title><g><path d="M57.7275,16.6172a2,2,0,0,1-1.98,1.7373,2.0422,2.0422,0,0,1-.2652-.0176l-3.4743-.46A24.4926,24.4926,0,1,1,32,7.5a2,2,0,0,1,0,4,20.52,20.52,0,1,0,16.7421,8.6835l-.19,4.4054a2,2,0,0,1-1.9965,1.914c-.0293,0-.0581-.0009-.0874-.0019a2,2,0,0,1-1.9121-2.084l.4013-9.3135c.0013-.0293.01-.0562.0123-.0852.0018-.02,0-.04.0024-.0607.0012-.01-.0005-.02.0009-.0308l0-.001c.0054-.04.0194-.08.0273-.12.0117-.06.0243-.1185.0412-.1762.0089-.0306.013-.062.0234-.0923.013-.0378.0336-.071.0487-.1076.0223-.0536.0449-.1064.0716-.1575.0158-.03.0264-.0624.0439-.0922.0217-.0371.05-.0685.0745-.1039.0291-.0426.0584-.0842.0906-.1243.01-.0126.018-.0266.0283-.0388.0144-.0173.0239-.037.039-.0539.03-.0338.0661-.0585.0979-.09s.0612-.0586.0935-.0865.0591-.0587.0922-.0839c.0408-.0311.0852-.0541.1279-.0817.0292-.0189.0589-.0363.0891-.0537.0382-.022.0734-.0486.1131-.0681.0453-.0221.0929-.0367.1394-.0553.0337-.0137.0677-.0254.1023-.0372.0415-.0141.0809-.0327.1235-.0441.0445-.0119.09-.0163.1351-.0251s.09-.0156.1352-.0215c.0386-.0048.0756-.0146.1148-.0172.0412-.0027.0822.0021.1236.0019.031,0,.0606-.007.092-.0059s.0576.01.0872.0126c.015.0013.03,0,.0449.0017s.03-.0006.0447.0013l.0036,0,.0032,0,8.7827,1.1642A1.9989,1.9989,0,0,1,57.7275,16.6172Z"/></g><text x="0" y="79" fill="#000000" font-size="5px" font-weight="bold" font-family="'Helvetica Neue', Helvetica, Arial-Unicode, Arial, Sans-serif">Created by The Icon Z</text><text x="0" y="84" fill="#000000" font-size="5px" font-weight="bold" font-family="'Helvetica Neue', Helvetica, Arial-Unicode, Arial, Sans-serif">from the Noun Project</text></svg>